<?xml version="1.0" encoding="UTF-8"?>
<svg width="10px" height="10px" viewBox="0 0 10 10" version="1.1" xmlns="http://www.w3.org/2000/svg" xmlns:xlink="http://www.w3.org/1999/xlink">
    <!-- Generator: Sketch 44 (41411) - http://www.bohemiancoding.com/sketch -->
    <title>关闭</title>
    <desc>Created with Sketch.</desc>
    <defs></defs>
    <g id="Page-1" stroke="none" stroke-width="1" fill="none" fill-rule="evenodd">
        <g id="输入信息_弹窗" transform="translate(-265.000000, -221.000000)" fill="#1BC47E">
            <path d="M271.559038,226 L274.677113,222.881925 C275.107629,222.451408 275.107629,221.753404 274.677113,221.322887 L274.677113,221.322887 L274.677113,221.322887 C274.246596,220.892371 273.548592,220.892371 273.118075,221.322887 L273.118075,221.322887 L270,224.440962 L266.881925,221.322887 L266.881925,221.322887 C266.451408,220.892371 265.753404,220.892371 265.322887,221.322887 L265.322887,221.322887 L265.322887,221.322887 C264.892371,221.753404 264.892371,222.451408 265.322887,222.881925 L268.440962,226 L265.322887,229.118075 C264.892371,229.548592 264.892371,230.246596 265.322887,230.677113 C265.753404,231.107629 266.451408,231.107629 266.881925,230.677113 L266.881925,230.677113 L270,227.559038 L273.118075,230.677113 L273.118075,230.677113 C273.548592,231.107629 274.246596,231.107629 274.677113,230.677113 C275.107629,230.246596 275.107629,229.548592 274.677113,229.118075 L271.559038,226 Z" id="关闭"></path>
        </g>
    </g>
</svg>