<?xml version="1.0" encoding="UTF-8"?>
<svg width="12px" height="18px" viewBox="0 0 12 18" version="1.1" xmlns="http://www.w3.org/2000/svg" xmlns:xlink="http://www.w3.org/1999/xlink">
    <!-- Generator: Sketch 44 (41411) - http://www.bohemiancoding.com/sketch -->
    <title>手机号</title>
    <desc>Created with Sketch.</desc>
    <defs></defs>
    <g id="Page-1" stroke="none" stroke-width="1" fill="none" fill-rule="evenodd">
        <g id="输入信息" transform="translate(-43.000000, -176.000000)" fill-rule="nonzero" fill="#A8A8A8">
            <g id="Group" transform="translate(40.000000, 172.000000)">
                <g id="手机" transform="translate(3.000000, 4.000000)">
                    <path d="M10.7967119,2.00010051 L1.20326759,2.00010051 L1.20326759,14.3972824 L10.7967119,14.3972824 L10.7967119,2.00010051 Z M6.99931497,1.00032944 C6.99931497,0.890357704 6.90937355,0.800375228 6.79945198,0.800375228 L4.80082204,0.800375228 C4.69090047,0.800375228 4.60095905,0.890357704 4.60095905,1.00032944 L4.60095905,1.20028365 C4.60095905,1.31025538 4.69090047,1.40023786 4.80082204,1.40023786 L6.79945198,1.40023786 C6.90937355,1.40023786 6.99931497,1.31025538 6.99931497,1.20028365 L6.99931497,1.00032944 Z M6,16.7967329 C6.43970681,16.7967329 6.79945198,16.4368236 6.79945198,15.9969161 C6.79945198,15.5570086 6.43970681,15.1970992 6,15.1970992 C5.56029319,15.1970992 5.20054802,15.5570086 5.20054802,15.9969161 C5.20054802,16.4368236 5.56029319,16.7967329 6,16.7967329 Z M10.7967119,17.9964582 L1.20326759,17.9964582 C0.543717652,17.9964582 0.00408963211,17.4565839 0.00408963211,16.7967329 L0.00408963211,1.20028365 C0.00408963211,0.540432682 0.543717672,0.00055836854 1.20326759,0.00055836854 L10.7967119,0.00055836854 C11.4562618,0.00055836854 11.9958898,0.540432702 11.9958898,1.20028365 L11.9958898,16.7967329 C11.9958898,17.4565839 11.4562618,17.9964582 10.7967119,17.9964582 Z" id="手机号"></path>
                </g>
            </g>
        </g>
    </g>
</svg>