<?xml version="1.0" encoding="UTF-8"?>
<svg width="16px" height="15px" viewBox="0 0 16 15" version="1.1" xmlns="http://www.w3.org/2000/svg" xmlns:xlink="http://www.w3.org/1999/xlink">
    <!-- Generator: Sketch 44 (41411) - http://www.bohemiancoding.com/sketch -->
    <title>验证码</title>
    <desc>Created with Sketch.</desc>
    <defs></defs>
    <g id="Page-1" stroke="none" stroke-width="1" fill="none" fill-rule="evenodd">
        <g id="输入信息" transform="translate(-45.000000, -238.000000)" fill-rule="nonzero" fill="#A8A8A8">
            <g id="Group-Copy" transform="translate(40.000000, 232.000000)">
                <g id="验证码" transform="translate(5.000000, 6.000000)">
                    <path d="M0.0651487332,3.3396866 C-0.30046916,5.52551753 1.09870923,7.61154804 3.19738179,8.0091266 C4.07185403,8.15801567 4.93043645,7.99261856 5.66167224,7.59500041 L12.0373291,14.7480099 C12.30738,15.045788 12.7209334,15.0622565 13.0230681,14.8307085 L13.0230681,14.8307085 L13.0388819,14.8141608 L13.0548097,14.7976528 C13.0706995,14.7810656 13.0865513,14.7645575 13.1024411,14.7480099 L15.9008359,11.8503142 C16.0914757,11.6683695 15.980285,11.2376561 15.6781884,10.9233699 C15.360278,10.5919819 14.9625763,10.476188 14.7719745,10.658212 L12.4824341,13.025948 L10.5428878,10.8236091 L12.307418,9.06900619 C12.4824341,8.86995959 12.4189128,8.47293526 12.132668,8.17460289 C11.8465372,7.86027711 11.4650295,7.77702433 11.2741616,7.9595233 L9.5410309,9.69817237 L6.79057166,6.66809567 C7.23563865,6.13817567 7.5536251,5.47591423 7.68093372,4.73095423 C8.04655161,2.5451233 6.6314834,0.459132371 4.53281084,0.0781014433 C2.43410027,-0.302969072 0.431032724,1.15444948 0.0651487332,3.3396866 L0.0651487332,3.3396866 Z M4.31039139,1.40258474 C5.70930368,1.65127423 6.6473352,3.04194804 6.40906394,4.49877278 C6.29760713,5.11139134 5.99554851,5.64131134 5.59815098,6.02234227 C5.5187399,6.05543753 5.43902471,6.10504082 5.37550344,6.17123134 C5.34376182,6.2043266 5.31198218,6.23742186 5.28024056,6.28702515 C4.73956856,6.63500041 4.08778187,6.80039753 3.42010535,6.68460371 C2.02088895,6.4193666 1.08289544,5.02869278 1.3372846,3.57186804 C1.57551785,2.11444948 2.91117498,1.13790186 4.31039139,1.40258474 L4.31039139,1.40258474 Z"></path>
                </g>
            </g>
        </g>
    </g>
</svg>