<?xml version="1.0" encoding="UTF-8"?>
<svg width="17px" height="17px" viewBox="0 0 17 17" version="1.1" xmlns="http://www.w3.org/2000/svg" xmlns:xlink="http://www.w3.org/1999/xlink">
    <!-- Generator: Sketch 44 (41411) - http://www.bohemiancoding.com/sketch -->
    <title>id</title>
    <desc>Created with Sketch.</desc>
    <defs></defs>
    <g id="Page-1" stroke="none" stroke-width="1" fill="none" fill-rule="evenodd">
        <g id="输入信息" transform="translate(-39.000000, -176.000000)" stroke="#A8A8A8" stroke-width="0.5" fill="#A8A8A8">
            <g id="Group" transform="translate(40.000000, 172.000000)">
                <path d="M7.50001049,5 C3.35787429,5 0,8.35787429 0,12.4999895 C0,14.0812033 0.489308952,15.5481234 1.32479224,16.7575941 C1.32479224,16.7575941 1.5851781,17.1191642 1.92558426,16.913146 C2.25183218,16.7156647 2.05233726,16.335133 2.05233726,16.335133 C1.74924594,15.9217542 1.58144452,15.5608133 1.38014574,15.0848865 C1.0340553,14.2666449 0.85857696,13.396972 0.85857696,12.4999895 C0.85857696,11.603028 1.0340553,10.7333551 1.38014574,9.91511345 C1.71461592,9.12437022 2.19360509,8.41400387 2.80381497,7.80379399 C3.41402484,7.19358411 4.1243912,6.71459495 4.91513443,6.38012476 C5.73337612,6.03403432 6.60304895,5.85855598 7.50001049,5.85855598 C8.396993,5.85855598 9.26666583,6.03403432 10.0849075,6.38012476 C10.7843668,6.67595867 11.4207537,7.08510049 11.980749,7.59790164 L12.3470385,7.96014297 C12.8856391,8.53433846 13.3135537,9.19088251 13.6198962,9.91513443 C13.9659867,10.7333761 14.141465,11.603049 14.141465,12.5000105 C14.141465,13.396993 13.9659867,14.2666658 13.6198962,15.0849075 C13.285426,15.8756508 12.8064369,16.5860171 12.196227,17.196227 C12.1081732,17.2842808 12.0177911,17.3692722 11.9256052,17.4518305 C11.8040121,16.5525197 11.3569891,15.722511 10.6366176,15.0753009 C10.2240149,14.7045856 9.74523549,14.4159042 9.2248623,14.2178776 C9.99895124,13.6742849 10.5049774,12.7748482 10.5049774,11.7571116 C10.5049774,10.0975136 9.15962949,8.75216569 7.50001049,8.75216569 C5.84041246,8.75216569 4.49506454,10.0975136 4.49506454,11.7571116 C4.49506454,12.7748692 5.00109071,13.6742849 5.77517965,14.2178776 C5.25478549,14.4159042 4.77602705,14.7045856 4.36342432,15.0753009 C3.51040579,15.841671 3.0406457,16.8643367 3.0406457,17.9549411 C3.0406457,18.091112 3.04366613,18.1817877 3.06067699,18.3287817 C3.06858464,18.3970559 3.09216074,18.4596668 3.12729416,18.513573 C3.1993439,18.638648 3.30669486,18.7191298 3.30669486,18.7191298 C4.50368534,19.5278068 5.94671466,20.000021 7.50001049,20.000021 C11.6421467,20.000021 15,16.6421467 15,12.5000105 C15,8.35789527 11.6421257,5 7.50001049,5 Z M5.35359955,11.7570907 C5.35359955,11.1837551 5.57685934,10.644756 5.98226758,10.2393478 C6.38767582,9.83396049 6.92669595,9.61067972 7.50001049,9.61067972 C8.07332503,9.61067972 8.61234515,9.83393952 9.01773242,10.2393478 C9.42311968,10.644756 9.64640045,11.1837761 9.64640045,11.7570907 C9.64640045,12.3304052 9.42314066,12.8694253 9.01773242,13.2748126 C8.61234515,13.6802208 8.07332503,13.9034806 7.50001049,13.9034806 C6.92669595,13.9034806 6.38767582,13.6802208 5.98226758,13.2748126 C5.57685934,12.8694253 5.35359955,12.3304262 5.35359955,11.7570907 Z M7.50001049,19.141423 C6.60302798,19.141423 5.73335515,18.9659657 4.91511345,18.6198752 C4.56029734,18.4697978 4.22188382,18.2902503 3.9012153,18.0831624 C3.89962119,18.0455749 3.89920168,18.0061625 3.89920168,17.9549201 C3.89920168,16.1951027 5.51452112,14.763379 7.50001049,14.763379 C9.48549986,14.763379 11.1008193,16.1951027 11.1008193,17.9549201 C11.1008193,17.9977934 11.0995188,18.0409603 11.0975681,18.0841482 C10.7772772,18.2908796 10.4392412,18.4699866 10.0848865,18.6198752 C9.26664485,18.9659657 8.39695105,19.141423 7.50001049,19.141423 L7.50001049,19.141423 Z" id="id"></path>
            </g>
        </g>
    </g>
</svg>